<?xml version="1.0" encoding="UTF-8" standalone="no"?>
<!DOCTYPE svg PUBLIC "-//W3C//DTD SVG 1.1//EN" "http://www.w3.org/Graphics/SVG/1.1/DTD/svg11.dtd">
<!-- Created with Vectornator (http://vectornator.io/) -->
<svg height="100%" stroke-miterlimit="10" style="fill-rule:nonzero;clip-rule:evenodd;stroke-linecap:round;stroke-linejoin:round;" version="1.1" viewBox="0 0 24 24" width="100%" xml:space="preserve" xmlns="http://www.w3.org/2000/svg" xmlns:vectornator="http://vectornator.io" xmlns:xlink="http://www.w3.org/1999/xlink">
<defs/>
<g id="Untitled" vectornator:layerName="Untitled">
<path d="M12 0C5.373 0 0 5.373 0 12C0 18.627 5.373 24 12 24C18.627 24 24 18.627 24 12C24 5.373 18.627 0 12 0ZM10 16L8 16L8 10L10 10L10 16ZM9 9.109C8.393 9.109 7.9 8.613 7.9 8C7.9 7.388 8.392 6.891 9 6.891C9.608 6.891 10.1 7.388 10.1 8C10.1 8.613 9.607 9.109 9 9.109ZM17 16L15.002 16L15.002 13.139C15.002 11.258 13 11.417 13 13.139L13 16L11 16L11 10L13 10L13 11.093C13.872 9.477 17 9.357 17 12.641C17 12.641 17 16 17 16Z" fill="#575863" fill-rule="nonzero" opacity="1" stroke="none"/>
</g>
</svg>
