<svg width="37" height="37" viewBox="0 0 37 37" fill="none" xmlns="http://www.w3.org/2000/svg">
<path d="M36.5 18.5C36.5 28.441 28.441 36.5 18.5 36.5C8.56 36.5 0.5 28.441 0.5 18.5C0.5 8.56 8.56 0.5 18.5 0.5C28.441 0.5 36.5 8.56 36.5 18.5Z" fill="#FFCB4C"/>
<path d="M12.6763 18.9159C14.1382 18.9159 15.3233 17.2567 15.3233 15.2099C15.3233 13.1631 14.1382 11.5039 12.6763 11.5039C11.2144 11.5039 10.0293 13.1631 10.0293 15.2099C10.0293 17.2567 11.2144 18.9159 12.6763 18.9159Z" fill="#65471B"/>
<path d="M25.382 21.6761C29.1828 21.6761 32.264 18.5949 32.264 14.7941C32.264 10.9933 29.1828 7.91211 25.382 7.91211C21.5812 7.91211 18.5 10.9933 18.5 14.7941C18.5 18.5949 21.5812 21.6761 25.382 21.6761Z" fill="#F4F7F9"/>
<path d="M15.325 10.4459C15.003 10.4459 14.685 10.2999 14.477 10.0229C13.486 8.70192 12.449 7.99392 11.394 7.91892C10.004 7.82392 8.87104 8.86592 8.66004 9.07692C8.24604 9.49092 7.57604 9.49092 7.16304 9.07692C6.74904 8.66292 6.74904 7.99292 7.16304 7.57992C7.62004 7.12292 9.29204 5.64392 11.544 5.80692C13.239 5.92692 14.795 6.91792 16.171 8.75192C16.522 9.21992 16.427 9.88392 15.96 10.2339C15.768 10.3769 15.545 10.4459 15.325 10.4459Z" fill="#65471B"/>
<path d="M33.3237 36.4999C32.7387 36.4999 32.2646 36.0259 32.2646 35.4409V15.3239C32.2646 14.7389 32.7387 14.2649 33.3237 14.2649C33.9087 14.2649 34.3826 14.7389 34.3826 15.3239V35.4419C34.3816 36.0259 33.9087 36.4999 33.3237 36.4999Z" fill="#292F33"/>
<path d="M33.3244 13.206C33.2704 13.206 33.2194 13.218 33.1664 13.222C32.4344 9.59403 29.2234 6.85303 25.3824 6.85303C21.0034 6.85303 17.4414 10.415 17.4414 14.794C17.4414 19.173 21.0034 22.735 25.3824 22.735C28.8504 22.735 31.7984 20.497 32.8784 17.392C33.0224 17.423 33.1704 17.441 33.3234 17.441C34.4934 17.441 35.4414 16.493 35.4414 15.323C35.4414 14.154 34.4934 13.206 33.3244 13.206V13.206ZM25.3824 20.618C22.1714 20.618 19.5594 18.006 19.5594 14.794C19.5594 11.582 22.1724 8.97003 25.3824 8.97003C28.5934 8.97003 31.2064 11.582 31.2064 14.794C31.2064 18.006 28.5934 20.618 25.3824 20.618Z" fill="#67757F"/>
<path d="M21.675 29.0881C21.516 29.0881 21.354 29.0521 21.202 28.9761C19.383 28.0661 17.615 28.0661 15.796 28.9761C15.272 29.2371 14.636 29.0261 14.375 28.5021C14.113 27.9791 14.325 27.3431 14.849 27.0811C17.27 25.8711 19.726 25.8711 22.149 27.0811C22.672 27.3431 22.884 27.9791 22.623 28.5021C22.438 28.8741 22.064 29.0881 21.675 29.0881V29.0881Z" fill="#65471B"/>
<path d="M28.5486 9.91095C27.6366 9.31795 26.5506 8.97095 25.3816 8.97095C22.1656 8.97095 19.5576 11.5779 19.5576 14.7949C19.5576 15.9639 19.9056 17.0499 20.4976 17.9619L28.5486 9.91095ZM22.8966 20.0549C23.6516 20.4119 24.4916 20.6179 25.3816 20.6179C28.5976 20.6179 31.2056 18.0109 31.2056 14.7939C31.2056 13.9039 30.9996 13.0629 30.6426 12.3089L22.8966 20.0549Z" fill="#BDDDF4"/>
</svg>
