<svg width="31" height="37" viewBox="0 0 31 37" fill="none" xmlns="http://www.w3.org/2000/svg">
<path d="M29.9146 10.086L20.9146 1.086C20.5536 0.725 20.0526 0.5 19.4996 0.5C18.3956 0.5 17.5006 1.396 17.4996 2.5C17.4996 3.052 17.7236 3.553 18.0856 3.915L14.2266 7.774L23.2266 16.774L27.0856 12.915C27.4476 13.276 27.9476 13.5 28.4996 13.5C29.6036 13.5 30.5006 12.604 30.4996 11.5C30.4996 10.948 30.2756 10.448 29.9146 10.086Z" fill="#E1E8ED"/>
<path d="M19.5 0.5H4.5C2.291 0.5 0.5 2.291 0.5 4.5V32.5C0.5 34.709 2.291 36.5 4.5 36.5H26.5C28.709 36.5 30.5 34.709 30.5 32.5V11.5H21.5C20.5 11.5 19.5 10.5 19.5 9.5V0.5Z" fill="#CCD6DD"/>
<path d="M19.5 0.5H17.5V9.5C17.5 11.709 19.291 13.5 21.5 13.5H30.5V11.5H21.5C20.5 11.5 19.5 10.5 19.5 9.5V0.5ZM14.5 8.5C14.5 9.052 14.052 9.5 13.5 9.5H5.5C4.948 9.5 4.5 9.052 4.5 8.5C4.5 7.948 4.948 7.5 5.5 7.5H13.5C14.052 7.5 14.5 7.948 14.5 8.5ZM14.5 12.5C14.5 13.052 14.052 13.5 13.5 13.5H5.5C4.948 13.5 4.5 13.052 4.5 12.5C4.5 11.948 4.948 11.5 5.5 11.5H13.5C14.052 11.5 14.5 11.948 14.5 12.5ZM26.5 16.5C26.5 17.052 26.053 17.5 25.5 17.5H5.5C4.948 17.5 4.5 17.052 4.5 16.5C4.5 15.948 4.948 15.5 5.5 15.5H25.5C26.053 15.5 26.5 15.948 26.5 16.5ZM26.5 20.5C26.5 21.053 26.053 21.5 25.5 21.5H5.5C4.948 21.5 4.5 21.053 4.5 20.5C4.5 19.947 4.948 19.5 5.5 19.5H25.5C26.053 19.5 26.5 19.947 26.5 20.5ZM26.5 24.5C26.5 25.053 26.053 25.5 25.5 25.5H5.5C4.948 25.5 4.5 25.053 4.5 24.5C4.5 23.947 4.948 23.5 5.5 23.5H25.5C26.053 23.5 26.5 23.947 26.5 24.5ZM26.5 28.5C26.5 29.053 26.053 29.5 25.5 29.5H5.5C4.948 29.5 4.5 29.053 4.5 28.5C4.5 27.947 4.948 27.5 5.5 27.5H25.5C26.053 27.5 26.5 27.947 26.5 28.5Z" fill="#99AAB5"/>
</svg>
