<svg width="37" height="37" viewBox="0 0 37 37" fill="none" xmlns="http://www.w3.org/2000/svg">
<path d="M5.36137 9.60512C6.30137 8.94812 7.71837 9.07412 8.56237 9.77112L7.59437 8.36412C6.81537 7.25312 7.09437 6.05112 8.20637 5.27112C9.31837 4.49412 12.4694 6.58312 12.4694 6.58312C11.6834 5.46112 11.8304 4.03912 12.9524 3.25212C14.0744 2.46812 15.6224 2.73912 16.4084 3.86312L26.8284 18.5831L25.5004 31.4581L14.4174 27.4161L4.75037 13.0831C3.95737 11.9541 4.23137 10.3971 5.36137 9.60512Z" fill="#E0AA94"/>
<path d="M3.19497 17.7941C3.19497 17.7941 2.06297 16.1441 3.71397 15.0131C5.36297 13.8821 6.49397 15.5311 6.49397 15.5311L11.745 23.1891C11.926 22.8871 12.124 22.5891 12.345 22.2951L5.05697 11.6681C5.05697 11.6681 3.92597 10.0191 5.57597 8.88809C7.22497 7.75709 8.35597 9.40609 8.35597 9.40609L15.211 19.4031C15.466 19.1951 15.727 18.9861 15.996 18.7811L8.04897 7.19009C8.04897 7.19009 6.91797 5.54109 8.56797 4.41009C10.217 3.27909 11.348 4.92809 11.348 4.92809L19.295 16.5171C19.587 16.3381 19.876 16.1831 20.166 16.0191L12.738 5.18709C12.738 5.18709 11.607 3.53809 13.256 2.40709C14.905 1.27609 16.036 2.92509 16.036 2.92509L23.89 14.3791L25.084 16.1211C20.136 19.5151 19.665 25.9001 22.492 30.0231C23.057 30.8481 23.882 30.2831 23.882 30.2831C20.489 25.3341 21.525 19.7731 26.474 16.3801L25.015 9.07809C25.015 9.07809 24.47 7.15409 26.393 6.60809C28.317 6.06309 28.863 7.98709 28.863 7.98709L30.548 12.9911C31.216 14.9751 31.927 16.9521 32.868 18.8221C35.525 24.1021 33.938 30.6641 28.928 34.1011C23.463 37.8481 15.992 36.4551 12.244 30.9911L3.19497 17.7941Z" fill="#F7DECE"/>
<path d="M12.5 32.5C8.50001 32.5 4.45801 28.458 4.45801 24.458C4.45801 23.905 4.05301 23.458 3.50001 23.458C2.94701 23.458 2.45801 23.905 2.45801 24.458C2.45801 30.458 6.50001 34.5 12.5 34.5C13.053 34.5 13.5 34.011 13.5 33.458C13.5 32.905 13.053 32.5 12.5 32.5Z" fill="#5DADEC"/>
<path d="M7.5 34.458C4.5 34.458 2.5 32.458 2.5 29.458C2.5 28.905 2.053 28.458 1.5 28.458C0.947 28.458 0.5 28.905 0.5 29.458C0.5 33.458 3.5 36.458 7.5 36.458C8.053 36.458 8.5 36.011 8.5 35.458C8.5 34.905 8.053 34.458 7.5 34.458ZM24.5 2.45801C23.948 2.45801 23.5 2.90601 23.5 3.45801C23.5 4.01001 23.948 4.45801 24.5 4.45801C28.5 4.45801 32.5 8.04701 32.5 12.458C32.5 13.01 32.948 13.458 33.5 13.458C34.052 13.458 34.5 13.01 34.5 12.458C34.5 6.94401 30.5 2.45801 24.5 2.45801Z" fill="#5DADEC"/>
<path d="M29.5 0.5C28.948 0.5 28.5 0.906 28.5 1.458C28.5 2.01 28.948 2.5 29.5 2.5C32.5 2.5 34.458 4.725 34.458 7.458C34.458 8.01 34.947 8.458 35.5 8.458C36.053 8.458 36.458 8.01 36.458 7.458C36.458 3.621 33.5 0.5 29.5 0.5Z" fill="#5DADEC"/>
</svg>
