<svg width="132" height="132" viewBox="0 0 132 132" fill="none" xmlns="http://www.w3.org/2000/svg">
<rect width="131.17" height="131.17" fill="#2F3036"/>
<g clip-path="url(#clip0_271_655)">
<path d="M96.1082 65.6276C95.6696 65.188 90.0401 58.0811 89.0896 56.9088C88.0661 55.7365 87.6274 55.9563 86.9694 56.0296C86.3114 56.1029 79.2197 57.3484 78.4155 57.4217C77.6113 57.5682 77.0995 57.8613 77.6113 58.5939C78.0499 59.2534 82.729 65.8474 83.7526 67.386L65.1094 71.8553L50.341 47.0177C49.7561 46.1385 49.6099 45.8455 48.2939 45.9187C46.9779 45.992 36.6694 46.8712 35.9383 46.8712C35.2071 46.9445 34.4029 47.2375 35.134 48.996C35.8651 50.7544 47.5628 75.9583 47.8553 76.6909C48.1477 77.4236 49.025 78.5959 50.999 78.1563C53.0461 77.6434 60.0647 75.8117 63.9396 74.786C65.9867 78.4493 70.0809 85.9226 70.8851 87.0216C71.9086 88.4869 72.6397 88.1939 74.1751 87.7543C75.4179 87.3879 93.33 80.9404 94.1342 80.5741C94.9385 80.2077 95.4502 79.9879 94.8654 79.182C94.4267 78.5959 89.7476 72.2216 87.2619 68.9246C88.9434 68.485 95.0116 66.8731 95.6696 66.6533C96.4007 66.4335 96.5469 66.0672 96.1082 65.6276ZM62.2581 72.588C62.0387 72.6612 51.5839 75.1523 51.0721 75.2989C50.4873 75.4454 50.4873 75.3721 50.4873 75.1523C50.341 74.9325 38.0585 49.4356 37.8391 49.1425C37.6929 48.8494 37.6929 48.5564 37.8391 48.5564C37.9853 48.5564 47.7091 47.6771 48.0015 47.6771C48.367 47.6771 48.2939 47.7504 48.4402 47.9702C48.4402 47.9702 62.1118 71.6355 62.3312 72.0018C62.6236 72.3682 62.4774 72.5147 62.2581 72.588ZM91.6485 78.083C91.7947 78.3761 92.014 78.5226 91.4292 78.6691C90.9174 78.8889 73.8095 84.677 73.444 84.8236C73.0784 84.9701 72.8591 85.0434 72.4204 84.384C71.9818 83.7246 66.4254 74.1266 66.4254 74.1266L84.6299 69.3642C85.0685 69.2177 85.2148 69.1444 85.5072 69.584C85.7996 70.0969 91.5023 77.8632 91.6485 78.083ZM92.8183 65.188C92.3796 65.2613 85.7265 66.9464 85.7265 66.9464L80.2432 59.4732C80.097 59.2534 79.9508 59.0336 80.3164 58.9603C80.6819 58.887 86.8963 57.788 87.1887 57.7147C87.4812 57.6415 87.7005 57.5682 88.0661 58.0811C88.4316 58.5207 93.1107 64.5286 93.33 64.7484C93.5494 64.9682 93.2569 65.1147 92.8183 65.188Z" fill="#959595"/>
</g>
<defs>
<clipPath id="clip0_271_655">
<rect width="61.486" height="42.2204" fill="white" transform="translate(34.8418 45.9094)"/>
</clipPath>
</defs>
</svg>
